#!OML:ASF E:/inclinewalkrobotboard/Project1/Captureday1/Session1/subject1.ASF
:FULLY-SPECIFIED
:DEGREES
163
root 0 0 0 -2.4065390873453474 -5.859285595908671 -7.577226149127336
lowerback 11.756494806107565 2.1886852698067485 6.519324164946684
upperback 1.3802404870974028 3.840959727087869 2.4008565871513086
thorax -4.915059646319447 1.771086309501394 -1.6889397702260371
lowerneck -17.10840564257876 -3.5720564267890387 -2.147709208276595
upperneck 22.030632048972556 -4.5509458813598656 0.7842404183865213
head 9.921979893211487 -2.199109557391868 0.0015566783470256085
rclavicle -2.781323749529684E-15 2.43665474093056E-15
rhumerus -30.814287294452292 -15.308409114342592 -82.38239204117957
rradius 24.090679188325815
rwrist 7.566444595026602
rhand -18.815090612113373 28.926310691106274
rfingers 7.125020000000021
rthumb 7.502002119520776 -0.9005359971958597
lclavicle -6.375803765370101E-15 1.875750199053753E-15
lhumerus -30.491783728322957 -0.3475291700358958 86.34698793271069
lradius 25.035572976729057
lwrist 5.688627386391444
lhand -27.88934436927155 26.377141899273802
lfingers 7.125020000000046
lthumb -1.2790086983879592 56.41962996310268
rfemur 0.049220722878215994 8.486965947994625 35.22515482473475
rtibia 28.04660101072796
rfoot -19.034387037239803 -6.2870821630272005
rtoes 4.911793844593249
lfemur -31.361343549493867 0.7770174940902015 -9.49614012209673
ltibia 43.985596788563086
lfoot -2.98116610613568 -0.3567523836274069
ltoes -11.154078570908332
164
root 0 0 0 -2.178343884862117 -5.988871863909345 -7.126887344728097
lowerback 11.77577594597399 2.3986984063876653 6.409969940464243
upperback 1.529580394489206 4.047251703032092 1.9570405124908847
thorax -4.785738759995648 1.8711588253477067 -2.123346568858132
lowerneck -17.059252507446633 -3.5466651879547415 -2.1555122652781984
upperneck 21.619886354207196 -4.583704634140062 0.8614810432841001
head 9.727444978368998 -2.1996741822461203 0.03374243174943328
rclavicle -3.4860197921635085E-15 1.5976526846923905E-15
rhumerus -28.96293787145013 -13.209661377871916 -82.5274804749777
rradius 27.87783576796038
rwrist 8.021657204691088
rhand -19.68230838541843 29.89519938243847
rfingers 7.125020000000012
rthumb 6.667190706764283 -0.04355092721228715
lclavicle -7.126724796801442E-15 9.360906683037284E-16
lhumerus -30.335042804540095 -0.14077483329418614 86.19734892787889
lradius 24.65360385971225
lwrist 5.458843941162385
lhand -27.969982396193437 26.508256442692893
lfingers 7.125020000000046
lthumb -1.3600006123454573 56.55350673553674
rfemur 0.252975265792708 8.230882252970957 35.13523018640297
rtibia 29.692100735990607
rfoot -18.948410485851774 -6.481540073915198
rtoes 1.492525630770766
lfemur -30.164545410978928 -1.6959151873769314 -10.856307764397336
ltibia 29.55006738533951
lfoot -7.182529215291543 4.038442135374286
ltoes -8.722003844011166
165
root 0 0 0 -2.089982592639409 -5.986114751428039 -6.766879493153323
lowerback 11.77783452224274 2.487646882381171 6.240249199909916
upperback 1.5843260562098669 4.10951432271696 1.693908516254137
thorax -4.742077572125805 1.9037467736435925 -2.3119692606835054
lowerneck -16.93991907698629 -3.556771837016928 -2.1746964207277686
upperneck 21.407250039605938 -4.645212971709341 0.939270289653683
head 9.59199527018464 -2.2179586205608115 0.05999482983157298
rclavicle -3.5019940591090916E-15 1.7043797712692357E-15
rhumerus -28.670223788797998 -13.39831960074451 -82.57538397790401
rradius 28.786619932946255
rwrist 8.632370515358428
rhand -20.068567631731433 29.85680894366078
rfingers 7.1250200000000055
rthumb 6.295047283550216 -0.14535133772156428
lclavicle -7.386064104780733E-15 9.502787453927677E-16
lhumerus -30.479629910642785 0.28894681107191367 85.77914742799095
lradius 24.25285321048085
lwrist 5.186018188689392
lhand -28.01092322015927 26.659850986070637
lfingers 7.125020000000046
lthumb -1.403814628014759 56.70172045893746
rfemur 0.3014706817401276 7.7807560818259915 33.69646448529913
rtibia 29.454196692659274
rfoot -17.76202982677113 -6.160398436012622
rtoes -0.1841609103198738
lfemur -27.88296228168991 -2.829398702396079 -12.743404771430095
ltibia 24.92799493505934
lfoot -8.106480157906445 4.501502474949388
ltoes -4.357971704704667
166
root 0 0 0 -2.1145678447180156 -5.955057802250664 -6.384696587593574
lowerback 11.778940406202217 2.5520770666245665 6.017936881128037
upperback 1.6486532854176643 4.140161360810854 1.4684681828802046
thorax -4.684643082105348 1.9217717490084647 -2.4236761343773487
lowerneck -16.812638389141576 -3.580229536776904 -2.2440780781393777
upperneck 20.976811904905297 -4.714750378386294 1.0902167614586424
head 9.37783125255241 -2.240986648365736 0.11863161751835508
rclavicle -3.194687272389598E-15 1.7218150397824366E-15
rhumerus -28.81855262607438 -14.253281778961348 -82.6145947780517
rradius 28.735722322329718
rwrist 9.532974327229212
rhand -20.276174750766227 29.56907507642198
rfingers 7.125019999999999
rthumb 6.094797935382793 -0.4755971900091964
lclavicle -7.274151163879E-15 9.33281148669726E-16
lhumerus -30.793214223644643 0.8699985760617351 85.26416840911365
lradius 23.788079644771486
lwrist 4.835308397621441
lhand -28.00633203596162 26.772626323156782
lfingers 7.125020000000046
lthumb -1.4014929100926583 56.80498051101034
rfemur 0.7178814290177193 7.0786826958052504 30.938116431103275
rtibia 27.56130541497583
rfoot -15.734865382860788 -5.349877134350706
rtoes -1.298293108285513
lfemur -25.577853664441566 -3.454633170671444 -14.350012333435037
ltibia 22.718684653564093
lfoot -8.50294695271046 4.2452002857821824
ltoes -1.1495740834885524
167
root 0 0 0 -2.223558780233548 -5.872056617011171 -5.910477313674401
lowerback 11.736559562569319 2.597887090349359 5.678849752832639
upperback 1.7382299286982446 4.1372859350674105 1.2582565798763494
thorax -4.572899107165092 1.9257214152694855 -2.445751105498583
lowerneck -16.671027136497358 -3.6124036983104206 -2.360301313254103
upperneck 20.544572487383952 -4.791103897186107 1.3070333620975456
head 9.160264420950961 -2.265914725281899 0.20489054187968905
rclavicle -2.672621491304713E-15 1.7145895710209262E-15
rhumerus -29.084218950087347 -15.297636061490191 -82.58690076182238
rradius 28.307948741461185
rwrist 10.495582817609986
rhand -20.34062007415779 29.153517909049413
rfingers 7.125019999999996
rthumb 6.032393289403537 -0.9117787804699446
lclavicle -6.8232857647905894E-15 9.58113813252593E-16
lhumerus -31.361180144673945 1.6307801415295275 84.6549446601748
lradius 23.2429240452229
lwrist 4.393940771500762
lhand -27.934017965254995 26.848854503031575
lfingers 7.125020000000047
lthumb -1.333215876114716 56.86574799208509
rfemur 0.6469544718779092 6.134973695277509 28.19669322506002
rtibia 28.503953452660227
rfoot -12.326581230359857 -4.283842488699016
rtoes -1.0121783580082961
lfemur -23.584871669796474 -3.7601088533468734 -15.357075721939466
ltibia 21.875439132198004
lfoot -8.81218351191118 3.929224478220665
ltoes 0.021888198673760684
168
root 0 0 0 -2.6939519568338888 -5.532112433051411 -4.402288662787147
lowerback 11.770647526923844 2.5396668688051744 4.310326402174063
upperback 2.0572206031835556 3.8786868804045707 0.9227584123894916
thorax -4.258984211295177 1.8243051008277809 -1.9756826197721007
lowerneck -16.37283704133383 -3.672493564354668 -2.6050930969705095
upperneck 20.681225878552645 -4.901823625802663 1.6554036063495576
head 9.102705437256803 -2.297558232468951 0.34314380755738305
rclavicle -2.2506087782075845E-15 1.7484611994714401E-15
rhumerus -29.649185434814726 -17.05878597577805 -82.34457840310755
rradius 27.247274701031532
rwrist 11.74671516530044
rhand -20.23984436570733 28.40038539619723
rfingers 7.125019999999995
rthumb 6.1299150523170045 -1.6677486984745968
lclavicle -6.249022296596911E-15 1.0738607792906775E-15
lhumerus -32.62326131902185 3.051501662518827 83.70828395168999
lradius 22.225879203103688
lwrist 3.59213083172064
lhand -27.721768884869544 26.9415053001267
lfingers 7.12502000000005
lthumb -1.1329512977480016 56.92162862303614
rfemur -1.6098574001472299 3.1038598724206743 22.824144746808756
rtibia 43.739150143146105
rfoot -0.038755289261390935 -1.6449297894459705
rtoes 5.304177881767409
lfemur -19.81553955546599 -3.880786302933387 -16.92771899454052
ltibia 21.46904787122509
lfoot -9.278279148252578 3.1228801008470817
ltoes 0.14281484187144144
